<svg aria-hidden="true" style="position: absolute; width: 0; height: 0; overflow: hidden;" version="1.1" xmlns="http://www.w3.org/2000/svg" xmlns:xlink="http://www.w3.org/1999/xlink">
<defs>
<symbol id="icon-instagram" viewBox="0 0 31 32">
<path d="M15.516 7.892c-2.247 0-2.529 0.010-3.412 0.050-0.881 0.040-1.482 0.18-2.008 0.384-0.544 0.211-1.006 0.494-1.466 0.954s-0.743 0.922-0.955 1.466c-0.205 0.526-0.345 1.128-0.384 2.008-0.039 0.883-0.050 1.165-0.050 3.412s0.010 2.529 0.050 3.411c0.040 0.881 0.18 1.482 0.384 2.008 0.212 0.544 0.494 1.006 0.954 1.466s0.921 0.744 1.465 0.955c0.526 0.205 1.128 0.344 2.009 0.384 0.883 0.040 1.165 0.050 3.412 0.050s2.529-0.010 3.411-0.050c0.881-0.040 1.483-0.18 2.009-0.384 0.544-0.211 1.005-0.495 1.465-0.955s0.743-0.922 0.955-1.466c0.203-0.526 0.343-1.128 0.384-2.008 0.040-0.883 0.050-1.164 0.050-3.411s-0.010-2.529-0.050-3.412c-0.041-0.881-0.181-1.482-0.384-2.008-0.212-0.544-0.495-1.006-0.955-1.466s-0.921-0.743-1.465-0.954c-0.527-0.205-1.129-0.344-2.010-0.384-0.883-0.040-1.164-0.050-3.412-0.050h0.003zM14.774 9.383c0.22-0 0.466 0 0.742 0 2.209 0 2.471 0.008 3.344 0.048 0.807 0.037 1.245 0.172 1.536 0.285 0.386 0.15 0.661 0.329 0.951 0.619s0.469 0.565 0.619 0.952c0.113 0.291 0.248 0.729 0.285 1.536 0.040 0.872 0.048 1.134 0.048 3.343s-0.009 2.47-0.048 3.343c-0.037 0.807-0.172 1.245-0.285 1.536-0.15 0.386-0.33 0.661-0.619 0.951s-0.565 0.469-0.951 0.619c-0.291 0.114-0.73 0.248-1.536 0.285-0.872 0.040-1.134 0.048-3.344 0.048s-2.471-0.009-3.344-0.048c-0.807-0.037-1.245-0.172-1.537-0.285-0.386-0.15-0.662-0.329-0.952-0.619s-0.469-0.565-0.619-0.951c-0.113-0.291-0.248-0.729-0.285-1.536-0.040-0.872-0.048-1.134-0.048-3.344s0.008-2.47 0.048-3.343c0.037-0.807 0.172-1.245 0.285-1.536 0.15-0.386 0.33-0.662 0.619-0.952s0.565-0.469 0.952-0.619c0.292-0.114 0.73-0.248 1.537-0.285 0.763-0.034 1.059-0.045 2.601-0.047v0.002zM19.933 10.757c0.548 0 0.993 0.444 0.993 0.993s-0.445 0.993-0.993 0.993c-0.548 0-0.993-0.445-0.993-0.993s0.445-0.993 0.993-0.993zM15.516 11.917c-2.347 0-4.249 1.903-4.249 4.249s1.903 4.249 4.249 4.249c2.347 0 4.249-1.902 4.249-4.249s-1.902-4.249-4.249-4.249zM15.516 13.408c1.523 0 2.758 1.235 2.758 2.758s-1.235 2.758-2.758 2.758c-1.523 0-2.758-1.235-2.758-2.758s1.235-2.758 2.758-2.758z"></path>
</symbol>
<symbol id="icon-not-now" viewBox="0 0 31 32">
<path d="M23.79 16.155c0 0.56-0.057 1.118-0.169 1.663-0.109 0.532-0.271 1.054-0.482 1.553-0.207 0.49-0.463 0.963-0.763 1.403-0.295 0.438-0.636 0.849-1.009 1.223-0.375 0.373-0.787 0.712-1.224 1.009-0.442 0.298-0.915 0.554-1.406 0.762-0.5 0.211-1.023 0.372-1.555 0.481-0.545 0.112-1.106 0.169-1.667 0.169s-1.122-0.057-1.666-0.169c-0.532-0.109-1.055-0.27-1.555-0.481-0.491-0.208-0.964-0.464-1.406-0.762-0.438-0.297-0.85-0.636-1.223-1.009-0.374-0.374-0.714-0.785-1.010-1.223-0.298-0.441-0.555-0.913-0.763-1.403-0.212-0.499-0.374-1.021-0.483-1.553-0.111-0.545-0.167-1.104-0.167-1.663s0.057-1.12 0.167-1.663c0.109-0.532 0.271-1.055 0.483-1.553 0.208-0.491 0.465-0.963 0.763-1.404 0.296-0.438 0.636-0.848 1.010-1.223 0.374-0.373 0.786-0.711 1.224-1.007 0.442-0.299 0.916-0.555 1.406-0.763 0.499-0.211 1.023-0.373 1.555-0.481 0.545-0.111 1.106-0.168 1.666-0.168s1.121 0.056 1.667 0.168c0.531 0.108 1.055 0.27 1.554 0.481 0.49 0.208 0.964 0.464 1.406 0.763 0.438 0.296 0.85 0.635 1.224 1.007 0.374 0.375 0.714 0.785 1.009 1.223 0.3 0.441 0.556 0.913 0.763 1.404 0.212 0.498 0.373 1.021 0.482 1.553 0.112 0.543 0.169 1.104 0.169 1.663zM12.5 9.772c-1.971 0.929-3.441 2.742-3.9 4.928 0.186 0.002 3.131 0.039 6.524-0.861-1.223-2.17-2.53-3.941-2.624-4.066zM15.709 14.925c-3.639 1.088-7.13 1.009-7.255 1.005-0.002 0.076-0.006 0.149-0.006 0.225 0 1.813 0.685 3.465 1.811 4.715-0.002-0.004 1.931-3.43 5.745-4.661 0.092-0.031 0.186-0.058 0.279-0.085-0.177-0.401-0.371-0.803-0.573-1.199zM20.182 10.859c-1.244-1.095-2.878-1.76-4.667-1.76-0.574 0-1.131 0.069-1.665 0.198 0.106 0.142 1.433 1.9 2.642 4.116 2.666-0.998 3.673-2.528 3.69-2.554zM16.764 17.294c-0.016 0.005-0.031 0.010-0.047 0.015-4.169 1.451-5.531 4.377-5.546 4.408 1.2 0.932 2.704 1.494 4.343 1.494 0.979 0 1.911-0.199 2.759-0.559-0.105-0.617-0.515-2.778-1.51-5.358zM19.464 22.007c1.587-1.069 2.714-2.767 3.028-4.734-0.145-0.047-2.122-0.672-4.403-0.307 0.927 2.543 1.303 4.615 1.375 5.040zM17.035 14.464c0.164 0.336 0.323 0.679 0.47 1.023 0.052 0.123 0.103 0.245 0.153 0.366 2.428-0.305 4.819 0.208 4.922 0.229-0.016-1.673-0.615-3.208-1.607-4.41-0.013 0.019-1.147 1.654-3.937 2.792z"></path>
</symbol>
<symbol id="icon-tviter" viewBox="0 0 31 32">
<path  d="M15.050 13.262l0.033 0.537-0.543-0.066c-1.975-0.252-3.701-1.107-5.166-2.542l-0.716-0.712-0.184 0.526c-0.391 1.172-0.141 2.41 0.673 3.243 0.434 0.46 0.336 0.526-0.412 0.252-0.26-0.088-0.488-0.153-0.51-0.121-0.076 0.077 0.184 1.074 0.391 1.468 0.282 0.548 0.857 1.085 1.487 1.402l0.532 0.252-0.629 0.011c-0.608 0-0.629 0.011-0.564 0.241 0.217 0.712 1.074 1.468 2.029 1.797l0.673 0.23-0.586 0.351c-0.868 0.504-1.888 0.789-2.909 0.811-0.488 0.011-0.89 0.055-0.89 0.088 0 0.11 1.324 0.723 2.095 0.964 2.312 0.712 5.057 0.405 7.119-0.811 1.465-0.866 2.93-2.586 3.614-4.251 0.369-0.887 0.738-2.509 0.738-3.287 0-0.504 0.033-0.57 0.64-1.172 0.358-0.351 0.695-0.734 0.76-0.844 0.108-0.208 0.098-0.208-0.456-0.022-0.922 0.329-1.053 0.285-0.597-0.208 0.337-0.351 0.738-0.986 0.738-1.172 0-0.033-0.163 0.022-0.347 0.121-0.195 0.11-0.629 0.274-0.955 0.372l-0.586 0.186-0.532-0.361c-0.293-0.197-0.705-0.416-0.922-0.482-0.553-0.153-1.4-0.132-1.899 0.044-1.357 0.493-2.214 1.764-2.116 3.155z"></path>
</symbol>
<symbol id="icon-youtube" viewBox="0 0 31 32">
<path  d="M21.981 10.833c0.712 0.195 1.273 0.771 1.463 1.502 0.346 1.325 0.346 4.090 0.346 4.090s0 2.765-0.346 4.090c-0.19 0.731-0.751 1.307-1.463 1.502-1.29 0.355-6.466 0.355-6.466 0.355s-5.175 0-6.466-0.355c-0.712-0.195-1.273-0.771-1.463-1.502-0.346-1.325-0.346-4.090-0.346-4.090s0-2.765 0.346-4.090c0.19-0.731 0.751-1.307 1.463-1.502 1.291-0.355 6.466-0.355 6.466-0.355s5.175 0 6.466 0.355zM13.964 14.098v5.172l4.137-2.586-4.137-2.586z"></path>
</symbol>
<symbol id="icon-form-input" viewBox="0 0 32 32">
<path fill="#fff" style="fill: var(--color1, #fff)" d="M30.276 1.724c0.362 0.362 0.485 0.9 0.316 1.383l-9.333 26.667c-0.181 0.516-0.658 0.869-1.204 0.892s-1.051-0.291-1.273-0.791l-5.125-11.531-11.531-5.125c-0.5-0.222-0.813-0.727-0.791-1.273s0.376-1.024 0.892-1.204l26.667-9.333c0.484-0.169 1.021-0.046 1.383 0.316zM16.257 17.629l3.596 8.090 6.292-17.978-9.888 9.888zM24.259 5.855l-17.978 6.292 8.090 3.596 9.888-9.888z"></path>
</symbol>
<symbol id="icon-footer-logo" viewBox="0 0 204 32">
<path fill="#fff" style="fill: var(--color1, #fff)" d="M24.774 17.32l-7.109 12.176-7.109-12.176h14.218zM26.679 16.232h-18.035l9.021 15.418 9.014-15.418z"></path>
<path fill="#fff" style="fill: var(--color1, #fff)" d="M37.135 2.176l7.109 12.176h-14.218l7.109-12.176zM37.135 0l-9.021 15.418h18.043l-9.021-15.418z"></path>
<path fill="#4caf4f" style="fill: var(--color2, #4caf4f)" d="M0 0l7.564 13.637 8.266-13.294-15.83-0.342z"></path>
<path fill="#4caf4f" style="fill: var(--color2, #4caf4f)" d="M17.665 1.195l7.934 13.561h-15.884l7.95-13.561z"></path>
<path fill="#4caf4f" style="fill: var(--color2, #4caf4f)" d="M27.643 17.716l7.942 13.934h-16.262l8.073-13.934h0.247z"></path>
<path fill="#4caf4f" style="fill: var(--color2, #4caf4f)" d="M29.362 16.871l7.772 13.721 7.88-13.721h-15.653z"></path>
<path fill="#fff" style="fill: var(--color1, #fff)" d="M79.168 2.201v26.854h-4.904l-11.683-16.902h-0.197v16.902h-5.678v-26.854h4.983l11.591 16.889h0.236v-16.889h5.651z"></path>
<path fill="#fff" style="fill: var(--color1, #fff)" d="M92.933 29.449c-2.072 0-3.855-0.42-5.35-1.259-1.486-0.848-2.631-2.046-3.436-3.593-0.804-1.556-1.206-3.396-1.206-5.52 0-2.072 0.402-3.89 1.206-5.455s1.936-2.784 3.396-3.658c1.469-0.874 3.191-1.311 5.166-1.311 1.329 0 2.566 0.214 3.711 0.643 1.154 0.42 2.159 1.053 3.016 1.901 0.865 0.848 1.539 1.914 2.019 3.199 0.481 1.276 0.721 2.771 0.721 4.484v1.534h-17.007v-3.462h11.749c0-0.804-0.175-1.517-0.525-2.137s-0.835-1.106-1.455-1.455c-0.612-0.358-1.324-0.538-2.137-0.538-0.848 0-1.6 0.197-2.255 0.59-0.647 0.385-1.154 0.905-1.521 1.56-0.367 0.647-0.555 1.368-0.564 2.164v3.291c0 0.997 0.184 1.858 0.551 2.583 0.376 0.726 0.905 1.285 1.587 1.678s1.491 0.59 2.426 0.59c0.621 0 1.189-0.087 1.705-0.262s0.957-0.437 1.324-0.787c0.367-0.35 0.647-0.778 0.839-1.285l5.166 0.341c-0.262 1.241-0.8 2.325-1.613 3.252-0.804 0.918-1.844 1.635-3.121 2.151-1.268 0.507-2.732 0.761-4.393 0.761z"></path>
<path fill="#fff" style="fill: var(--color1, #fff)" d="M110.13 8.915l3.697 7.041 3.79-7.041h5.73l-5.836 10.070 5.993 10.070h-5.703l-3.973-6.963-3.907 6.963h-5.77l5.98-10.070-5.77-10.070h5.77z"></path>
<path fill="#fff" style="fill: var(--color1, #fff)" d="M135.043 29.449c-2.063 0-3.838-0.437-5.324-1.311-1.477-0.883-2.613-2.107-3.409-3.672-0.786-1.565-1.18-3.366-1.18-5.402 0-2.063 0.398-3.873 1.193-5.429 0.804-1.565 1.946-2.784 3.423-3.658 1.477-0.883 3.234-1.324 5.271-1.324 1.757 0 3.295 0.319 4.615 0.957 1.319 0.638 2.365 1.534 3.134 2.688s1.193 2.509 1.271 4.065h-5.271c-0.148-1.005-0.542-1.814-1.18-2.426-0.629-0.621-1.455-0.931-2.478-0.931-0.866 0-1.622 0.236-2.269 0.708-0.638 0.463-1.136 1.141-1.494 2.032s-0.538 1.971-0.538 3.239c0 1.285 0.174 2.378 0.524 3.278 0.358 0.9 0.862 1.587 1.508 2.059s1.403 0.708 2.269 0.708c0.638 0 1.211-0.131 1.717-0.393 0.516-0.262 0.94-0.642 1.271-1.141 0.341-0.507 0.564-1.115 0.669-1.823h5.271c-0.087 1.539-0.507 2.894-1.259 4.065-0.743 1.163-1.77 2.072-3.082 2.727-1.311 0.656-2.863 0.983-4.655 0.983z"></path>
<path fill="#fff" style="fill: var(--color1, #fff)" d="M156.794 29.449c-2.071 0-3.855-0.42-5.349-1.259-1.487-0.848-2.631-2.046-3.436-3.593-0.804-1.556-1.206-3.396-1.206-5.52 0-2.072 0.402-3.89 1.206-5.455s1.936-2.784 3.396-3.658c1.469-0.874 3.19-1.311 5.166-1.311 1.329 0 2.566 0.214 3.711 0.643 1.154 0.42 2.159 1.053 3.017 1.901 0.865 0.848 1.538 1.914 2.019 3.199 0.48 1.276 0.721 2.771 0.721 4.484v1.534h-17.007v-3.462h11.748c0-0.804-0.175-1.517-0.524-2.137-0.35-0.621-0.835-1.106-1.456-1.455-0.612-0.358-1.325-0.538-2.138-0.538-0.848 0-1.599 0.197-2.255 0.59-0.647 0.385-1.154 0.905-1.521 1.56-0.367 0.647-0.556 1.368-0.564 2.164v3.291c0 0.997 0.183 1.858 0.551 2.583 0.375 0.726 0.905 1.285 1.586 1.678s1.49 0.59 2.426 0.59c0.621 0 1.189-0.087 1.705-0.262 0.516-0.175 0.958-0.437 1.325-0.787s0.646-0.778 0.839-1.285l5.166 0.341c-0.262 1.241-0.8 2.325-1.613 3.252-0.804 0.918-1.844 1.635-3.121 2.151-1.267 0.507-2.732 0.761-4.393 0.761z"></path>
<path fill="#fff" style="fill: var(--color1, #fff)" d="M175.269 17.411v11.644h-5.586v-20.141h5.324v3.554h0.236c0.446-1.171 1.194-2.098 2.243-2.78 1.049-0.691 2.32-1.036 3.815-1.036 1.398 0 2.618 0.306 3.659 0.918 1.040 0.612 1.849 1.486 2.426 2.623 0.577 1.128 0.865 2.474 0.865 4.039v12.824h-5.586v-11.828c0.009-1.233-0.306-2.194-0.944-2.885-0.638-0.699-1.517-1.049-2.636-1.049-0.752 0-1.415 0.162-1.993 0.485-0.569 0.323-1.014 0.795-1.338 1.416-0.315 0.612-0.477 1.351-0.485 2.216z"></path>
<path fill="#fff" style="fill: var(--color1, #fff)" d="M203.366 8.915v4.196h-12.129v-4.196h12.129zM193.99 4.089h5.586v18.777c0 0.516 0.079 0.918 0.236 1.206 0.158 0.28 0.377 0.476 0.656 0.59 0.288 0.114 0.621 0.17 0.996 0.17 0.262 0 0.525-0.022 0.787-0.066 0.262-0.052 0.463-0.092 0.603-0.118l0.879 4.157c-0.279 0.087-0.673 0.188-1.18 0.302-0.508 0.122-1.123 0.197-1.85 0.223-1.346 0.052-2.526-0.127-3.54-0.538-1.005-0.411-1.788-1.049-2.347-1.914-0.56-0.865-0.835-1.958-0.827-3.278v-19.511z"></path>
</symbol>
<symbol id="icon-line-up" viewBox="0 0 32 32">
<path d="M27.414 12.586l-10-10c-0.781-0.781-2.047-0.781-2.828 0l-10 10c-0.781 0.781-0.781 2.047 0 2.828s2.047 0.781 2.828 0l6.586-6.586v19.172c0 1.105 0.895 2 2 2s2-0.895 2-2v-19.172l6.586 6.586c0.39 0.39 0.902 0.586 1.414 0.586s1.024-0.195 1.414-0.586c0.781-0.781 0.781-2.047 0-2.828z"></path>
</symbol>
<symbol id="icon-line-bottom" viewBox="0 0 32 32">
<path d="M27.414 19.414l-10 10c-0.781 0.781-2.047 0.781-2.828 0l-10-10c-0.781-0.781-0.781-2.047 0-2.828s2.047-0.781 2.828 0l6.586 6.586v-19.172c0-1.105 0.895-2 2-2s2 0.895 2 2v19.172l6.586-6.586c0.39-0.39 0.902-0.586 1.414-0.586s1.024 0.195 1.414 0.586c0.781 0.781 0.781 2.047 0 2.828z"></path>
</symbol>
</defs>
</svg>